<svg width="512" height="512" viewBox="0 0 512 512" fill="none" xmlns="http://www.w3.org/2000/svg">
<circle cx="256" cy="256" r="256" fill="#7B7B7B"/>
<path d="M512 256C512 397.385 397.385 512 256 512C114.615 512 0 397.385 0 256C0 114.615 114.615 0 256 0C397.385 0 512 114.615 512 256ZM38.4 256C38.4 376.177 135.823 473.6 256 473.6C376.177 473.6 473.6 376.177 473.6 256C473.6 135.823 376.177 38.4 256 38.4C135.823 38.4 38.4 135.823 38.4 256Z" fill="#525252"/>
<path d="M512 256C512 397.385 397.385 512 256 512C114.615 512 0 397.385 0 256C0 114.615 114.615 0 256 0C397.385 0 512 114.615 512 256ZM38.4 256C38.4 376.177 135.823 473.6 256 473.6C376.177 473.6 473.6 376.177 473.6 256C473.6 135.823 376.177 38.4 256 38.4C135.823 38.4 38.4 135.823 38.4 256Z" fill="#525252"/>
<path d="M133.5 308H116V203H133.5V308Z" fill="white"/>
<path d="M221.034 290.5L203.534 308H151.034V203H203.534L221.034 220.5V290.5ZM203.534 283.325V227.675L196.359 220.5H168.534V290.5H196.359L203.534 283.325Z" fill="white"/>
<path d="M308.534 308H238.534V203H256.034V290.5H308.534V308Z" fill="white"/>
<path d="M396.034 308H326.034V203H396.034V220.5H343.534V246.75H369.784V264.25H343.534V290.5H396.034V308Z" fill="white"/>
</svg>
