<svg width="512" height="512" viewBox="0 0 512 512" fill="none" xmlns="http://www.w3.org/2000/svg">
<circle cx="256" cy="256" r="256" fill="#7B7B7B"/>
<path d="M512 256C512 397.385 397.385 512 256 512C114.615 512 0 397.385 0 256C0 114.615 114.615 0 256 0C397.385 0 512 114.615 512 256ZM38.4 256C38.4 376.177 135.823 473.6 256 473.6C376.177 473.6 473.6 376.177 473.6 256C473.6 135.823 376.177 38.4 256 38.4C135.823 38.4 38.4 135.823 38.4 256Z" fill="#6C6C6C"/>
<path d="M512 256C512 397.385 397.385 512 256 512C114.615 512 0 397.385 0 256C0 114.615 114.615 0 256 0C397.385 0 512 114.615 512 256ZM25.6 256C25.6 383.246 128.754 486.4 256 486.4C383.246 486.4 486.4 383.246 486.4 256C486.4 128.754 383.246 25.6 256 25.6C128.754 25.6 25.6 128.754 25.6 256Z" fill="#AFAFAF"/>
<path d="M126 300.6V211H137.008V300.6H126Z" fill="white"/>
<path d="M154.604 300.6V211H188.268C202.263 211 213.527 215.139 222.06 223.416C230.679 231.693 234.988 242.445 234.988 255.672C234.988 268.813 230.636 279.608 221.932 288.056C213.228 296.419 201.921 300.6 188.012 300.6H154.604ZM223.852 255.928C223.852 245.688 220.524 237.325 213.868 230.84C207.297 224.269 198.721 220.984 188.14 220.984H165.612V290.616H188.14C198.721 290.616 207.297 287.373 213.868 280.888C220.524 274.403 223.852 266.083 223.852 255.928Z" fill="white"/>
<path d="M248.229 300.6V211H259.237V290.744H310.949V300.6H248.229Z" fill="white"/>
<path d="M321.854 300.6V211H386.878V220.728H332.862V250.552H383.294V260.28H332.862V290.872H386.878V300.6H321.854Z" fill="white"/>
</svg>
